<?xml version="1.0" encoding="utf-8"?>
<!-- Generator: Adobe Illustrator 26.1.0, SVG Export Plug-In . SVG Version: 6.00 Build 0)  -->
<svg version="1.1" id="Layer_1" xmlns="http://www.w3.org/2000/svg" xmlns:xlink="http://www.w3.org/1999/xlink" x="0px" y="0px"
	 viewBox="0 0 45 45" style="enable-background:new 0 0 45 45;" xml:space="preserve">
<style type="text/css">
	.st0{fill:#D900FF;}
	.st1{font-family:'ArialRoundedMTBold';}
	.st2{font-size:1px;}
</style>
<path class="st0" d="M2.69,2.45c0,0-0.99,0.83,1.52,2.18c0,0,3.24,1.46,3.14-0.24c0,0,0.65,0.99-0.79,1.17S3.09,4.5,2.54,3.85
	S2.08,2.6,2.69,2.45z"/>
<path class="st0" d="M3.86,3.27l1.27,1.26c0,0,0.25,0.22,0.54-0.07s2.04-2.11,2.04-2.11L7.49,2.13c0,0-0.24-0.14-0.45,0.09
	S5.39,3.93,5.39,3.93l-0.9-0.84C4.49,3.09,4.3,2.8,3.86,3.27z"/>
<path class="st0" d="M3.35,4.49v1.93c0,0,0.09,0.32,0.38,0.32s2.45,0,2.45,0s0.34-0.02,0.34-0.35V5.54H6.19c0,0,0.06,0.09-0.17,0.26
	L3.86,5.78c0,0-0.21-0.05-0.2-0.42V4.67L3.35,4.49z"/>
<path class="st0" d="M2.86,3.23c0,0-0.17-0.55,0.49-0.66v1.19c0,0,0.02,0.17,0.33,0.28V2.32c0,0,0.07-0.23,0.26-0.23h2.04
	c0,0,0.22,0.05,0.22,0.24c0,0.2,0,0.33,0,0.33l0.32-0.31V2.01c0,0-0.05-0.24-0.33-0.25H3.68c0,0-0.34,0.04-0.34,0.46
	c0,0-0.61,0.1-0.64,0.5C2.7,2.72,2.63,3,2.86,3.23z"/>
<text transform="matrix(1 0 0 1 1.2025 7.6514)" class="st1 st2">Julie~BlinksTech</text>
</svg>
